<svg viewBox="0 0 620 300" width="620" height="300" xmlns="http://www.w3.org/2000/svg" role="img" aria-label="sim / raw / mitigated on ibm_fez" font-family="ui-monospace, 'SF Mono', 'JetBrains Mono', Menlo, Consolas, monospace"><title>sim / raw / mitigated on ibm_fez</title><rect x="0" y="0" width="620" height="300" fill="#0b0e14"/><text x="24" y="32" font-size="15" fill="#e8a33d" text-anchor="start" font-weight="bold">real hardware: sim → raw → mitigated</text><text x="24" y="52" font-size="11" fill="#8a8f98" text-anchor="start" font-weight="normal">⟨Z₀⟩, backend ibm_fez · ZNE overhead 3.0× shots</text><line x1="70" y1="80" x2="70" y2="250" stroke="#1e2430" stroke-width="1"/><line x1="70" y1="250" x2="570" y2="250" stroke="#1e2430" stroke-width="1"/><line x1="70" y1="207.5" x2="570" y2="207.5" stroke="#1e2430" stroke-width="1"/><text x="62" y="211.5" font-size="10" fill="#8a8f98" text-anchor="end" font-weight="normal">0.25</text><line x1="70" y1="165" x2="570" y2="165" stroke="#1e2430" stroke-width="1"/><text x="62" y="169" font-size="10" fill="#8a8f98" text-anchor="end" font-weight="normal">0.50</text><line x1="70" y1="122.5" x2="570" y2="122.5" stroke="#1e2430" stroke-width="1"/><text x="62" y="126.5" font-size="10" fill="#8a8f98" text-anchor="end" font-weight="normal">0.75</text><line x1="70" y1="80" x2="570" y2="80" stroke="#1e2430" stroke-width="1"/><text x="62" y="84" font-size="10" fill="#8a8f98" text-anchor="end" font-weight="normal">1.00</text><rect x="111.67" y="126.93" width="83.33" height="123.07" rx="0" fill="#8a8f98" stroke="#8a8f98" stroke-width="1"/><text x="153.33" y="118.93" font-size="12" fill="#e6e1d7" text-anchor="middle" font-weight="bold">+0.724</text><text x="153.33" y="270" font-size="11" fill="#8a8f98" text-anchor="middle" font-weight="normal">sim (exact)</text><rect x="278.33" y="167.32" width="83.33" height="82.68" rx="0" fill="#ff6b6b" stroke="#ff6b6b" stroke-width="1"/><text x="320" y="159.32" font-size="12" fill="#e6e1d7" text-anchor="middle" font-weight="bold">+0.486</text><text x="320" y="270" font-size="11" fill="#8a8f98" text-anchor="middle" font-weight="normal">raw HW</text><rect x="445" y="102.02" width="83.33" height="147.98" rx="0" fill="#4ade80" stroke="#4ade80" stroke-width="1"/><text x="486.67" y="94.02" font-size="12" fill="#e6e1d7" text-anchor="middle" font-weight="bold">+0.870</text><text x="486.67" y="270" font-size="11" fill="#8a8f98" text-anchor="middle" font-weight="normal">ZNE-mitigated</text><text x="70" y="288" font-size="10" fill="#8a8f98" text-anchor="start" font-weight="normal">noise drags raw toward 0; mitigation lifts it back — at 3× the shots</text></svg>